<?xml version="1.0" standalone="no"?>
<!DOCTYPE svg PUBLIC "-//W3C//DTD SVG 20010904//EN"
 "http://www.w3.org/TR/2001/REC-SVG-20010904/DTD/svg10.dtd">
<svg version="1.0" xmlns="http://www.w3.org/2000/svg"
 width="500.000000pt" height="208.000000pt" viewBox="0 0 500.000000 208.000000"
 preserveAspectRatio="xMidYMid meet">

<g transform="translate(0.000000,208.000000) scale(0.100000,-0.100000)"
fill="#000000" stroke="none">
<path d="M325 1600 c-7 -12 54 -531 64 -542 4 -4 41 -13 83 -19 l76 -12 7 -56
c3 -31 9 -67 12 -80 5 -19 3 -22 -13 -18 -11 3 -36 9 -56 13 -36 6 -38 5 -38
-19 0 -22 5 -26 48 -32 65 -9 70 -13 77 -71 7 -50 7 -50 -32 -76 -139 -92 -73
-308 93 -308 71 0 129 41 159 113 37 89 -29 208 -125 223 -35 6 -38 9 -43 47
-3 23 -4 43 -2 45 3 3 867 -158 873 -163 2 -1 -5 -18 -14 -38 -15 -31 -22 -35
-66 -40 -109 -13 -184 -127 -147 -224 13 -34 55 -80 91 -99 98 -51 238 33 238
143 0 55 -21 106 -58 141 l-29 27 21 40 22 41 60 -13 c86 -18 96 -17 92 9 -2
18 -13 24 -61 34 -32 6 -60 13 -62 16 -3 2 62 134 144 294 l148 289 50 -3 c32
-2 54 1 59 9 9 15 -22 39 -53 39 -13 0 -23 5 -23 10 0 6 20 50 44 99 l45 88
205 13 c113 7 210 17 217 21 26 16 0 39 -43 39 -94 -1 -400 -29 -411 -39 -7
-5 -34 -55 -62 -110 -27 -56 -55 -101 -63 -101 -7 0 -346 63 -752 140 -406 77
-745 140 -753 140 -9 0 -19 -5 -22 -10z m210 -72 c50 -10 104 -21 120 -24 51
-9 343 -64 480 -91 72 -14 144 -27 160 -30 17 -2 75 -14 130 -25 55 -11 127
-24 160 -29 167 -27 240 -45 240 -59 0 -13 -259 -533 -283 -568 -7 -11 -99 4
-463 73 -249 47 -455 87 -456 88 -6 6 -23 140 -18 145 3 3 188 -27 413 -67
466 -83 477 -84 477 -56 0 19 -38 27 -530 114 -291 52 -532 95 -534 97 -2 2
-12 77 -22 166 -11 90 -23 191 -27 226 -5 34 -7 64 -4 67 5 5 28 1 157 -27z
m173 -878 c72 -44 76 -139 10 -195 -28 -24 -39 -27 -82 -22 -40 3 -55 11 -78
36 -52 58 -32 157 37 187 43 19 75 17 113 -6z m788 -145 c65 -27 85 -126 37
-183 -46 -55 -129 -57 -178 -4 -52 56 -39 141 27 182 39 24 67 25 114 5z"/>
<path d="M1999 1161 c-68 -22 -109 -76 -109 -143 1 -59 33 -111 112 -179 99
-85 131 -131 124 -183 -3 -24 -15 -49 -30 -65 -23 -22 -35 -26 -87 -26 -56 0
-63 3 -90 33 -16 18 -29 44 -29 58 0 14 -4 23 -10 19 -5 -3 -10 -32 -10 -65 0
-56 1 -58 31 -69 18 -6 60 -11 93 -11 86 0 143 30 174 90 44 89 20 166 -79
251 -119 101 -139 126 -139 169 0 53 32 90 85 96 56 7 105 -20 120 -66 l12
-35 5 55 c4 30 3 59 -1 63 -11 12 -142 18 -172 8z"/>
<path d="M3665 1060 c-133 -4 -156 -7 -134 -17 15 -6 29 -19 33 -28 8 -22 8
-349 0 -409 -5 -36 -12 -50 -28 -56 -14 -6 13 -8 74 -8 52 0 85 3 73 5 -36 7
-42 24 -45 138 l-3 110 57 3 c61 3 98 -9 98 -33 0 -8 5 -15 10 -15 6 0 10 12
10 28 0 15 3 38 7 51 5 21 4 22 -15 12 -11 -6 -55 -11 -97 -11 l-76 0 3 98 3
97 67 3 c71 3 108 -9 108 -33 0 -8 4 -15 9 -15 9 0 20 80 11 83 -3 1 -77 0
-165 -3z"/>
<path d="M3929 1026 c-12 -46 -6 -56 18 -28 14 17 34 23 96 28 l77 7 -2 -234
-3 -233 -25 -13 c-22 -11 -12 -13 75 -12 73 1 92 3 71 9 -16 5 -33 15 -37 22
-5 7 -9 114 -9 237 l0 224 71 -7 c83 -9 99 -14 99 -31 0 -8 5 -17 10 -20 6 -4
10 12 10 42 l0 48 -220 0 -221 0 -10 -39z"/>
<path d="M2283 1054 c4 -4 17 -12 29 -18 24 -12 42 -60 140 -366 30 -93 48
-135 58 -135 10 0 40 64 92 194 42 106 78 195 80 197 2 2 35 -80 73 -182 73
-196 87 -226 103 -209 6 6 45 111 87 235 80 234 96 270 120 270 7 0 17 5 20
10 4 6 -22 10 -72 10 -78 0 -78 0 -54 -19 l24 -18 -41 -134 c-60 -193 -78
-244 -84 -233 -3 5 -36 92 -73 194 -37 102 -73 191 -80 198 -10 11 -27 -24
-90 -185 -43 -109 -81 -202 -85 -206 -6 -7 -111 343 -110 371 0 6 6 12 14 12
8 0 18 5 21 10 4 6 -27 10 -86 10 -51 0 -89 -3 -86 -6z"/>
<path d="M3204 1035 l26 -24 0 -179 c0 -223 -6 -271 -34 -282 -14 -6 12 -9 74
-8 74 0 88 2 64 9 l-32 9 -7 128 c-4 70 -5 174 -2 232 5 93 9 106 29 122 23
17 21 18 -61 18 l-84 0 27 -25z"/>
<path d="M4410 1050 c0 -5 6 -10 13 -10 22 0 70 -59 141 -169 l66 -104 0 -102
c0 -96 -1 -103 -22 -113 -18 -8 -3 -11 72 -10 70 0 87 2 66 8 -16 5 -33 15
-37 22 -5 7 -9 54 -9 103 l0 91 61 99 c82 133 105 161 142 176 31 13 31 14
-37 17 -75 3 -85 0 -67 -22 11 -13 1 -35 -54 -126 l-67 -111 -27 43 c-93 147
-113 188 -101 203 11 13 3 15 -64 15 -44 0 -76 -4 -76 -10z"/>
</g>
</svg>
